<svg width="330" height="64" viewBox="0 0 330 64" fill="none" xmlns="http://www.w3.org/2000/svg">
<path d="M44.204 27.544C42.3287 15.1004 23.2242 14.4576 24.4401 33.1432C25.0495 42.537 33.5161 54.3233 34.8394 55.4153C36.5007 55.4991 49.9793 52.3676 56.0226 45.5955C68.0411 32.1293 53.0239 19.3152 44.204 27.544Z" fill="#FC4C69"/>
<path d="M29.246 50.4827C26.3601 45.7262 23.1921 39.1007 22.8141 33.2668C22.3774 26.5589 24.4161 22.6749 26.2041 20.5971C28.2947 18.1676 31.184 16.8294 34.34 16.8294C36.7073 16.8294 39.2133 17.6613 41.2919 19.2849C38.672 4.16911 20.9714 6.05118 19.0568 18.7685C9.01354 9.39643 -8.08699 23.9864 5.59823 39.3224C12.0722 46.5784 26.0441 50.1635 29.246 50.4827Z" fill="#FC4C69"/>
<path d="M71.3977 49.5V23.3182H78.4375V27.8864H78.7102C79.1875 26.2614 79.9886 25.0341 81.1136 24.2045C82.2386 23.3636 83.5341 22.9432 85 22.9432C85.3636 22.9432 85.7557 22.9659 86.1761 23.0114C86.5966 23.0568 86.9659 23.1193 87.2841 23.1989V29.642C86.9432 29.5398 86.4716 29.4489 85.8693 29.3693C85.267 29.2898 84.7159 29.25 84.2159 29.25C83.1477 29.25 82.1932 29.483 81.3523 29.9489C80.5227 30.4034 79.8636 31.0398 79.375 31.858C78.8977 32.6761 78.6591 33.6193 78.6591 34.6875V49.5H71.3977ZM104.391 50.0114C101.698 50.0114 99.3801 49.4659 97.4369 48.375C95.5051 47.2727 94.0164 45.7159 92.971 43.7045C91.9255 41.6818 91.4028 39.2898 91.4028 36.5284C91.4028 33.8352 91.9255 31.4716 92.971 29.4375C94.0164 27.4034 95.488 25.8182 97.3857 24.6818C99.2948 23.5455 101.533 22.9773 104.102 22.9773C105.829 22.9773 107.437 23.2557 108.926 23.8125C110.426 24.358 111.732 25.1818 112.846 26.2841C113.971 27.3864 114.846 28.7727 115.471 30.4432C116.096 32.1023 116.408 34.0455 116.408 36.2727V38.267H94.3005V33.767H109.573C109.573 32.7216 109.346 31.7955 108.891 30.9886C108.437 30.1818 107.806 29.5511 106.999 29.0966C106.204 28.6307 105.278 28.3977 104.221 28.3977C103.119 28.3977 102.141 28.6534 101.289 29.1648C100.448 29.6648 99.7891 30.3409 99.3119 31.1932C98.8346 32.0341 98.5903 32.9716 98.5789 34.0057V38.2841C98.5789 39.5795 98.8176 40.6989 99.2948 41.642C99.7835 42.5852 100.471 43.3125 101.357 43.8239C102.244 44.3352 103.295 44.5909 104.511 44.5909C105.318 44.5909 106.056 44.4773 106.727 44.25C107.397 44.0227 107.971 43.6818 108.448 43.2273C108.926 42.7727 109.289 42.2159 109.539 41.5568L116.255 42C115.914 43.6136 115.215 45.0227 114.158 46.2273C113.113 47.4205 111.761 48.3523 110.102 49.0227C108.454 49.6818 106.551 50.0114 104.391 50.0114ZM123.787 49.5V23.3182H130.708V27.9375H131.014C131.56 26.4034 132.469 25.1932 133.742 24.3068C135.014 23.4205 136.537 22.9773 138.31 22.9773C140.105 22.9773 141.634 23.4261 142.895 24.3239C144.156 25.2102 144.997 26.4148 145.418 27.9375H145.691C146.225 26.4375 147.191 25.2386 148.588 24.3409C149.997 23.4318 151.662 22.9773 153.583 22.9773C156.026 22.9773 158.009 23.7557 159.531 25.3125C161.066 26.858 161.833 29.0511 161.833 31.892V49.5H154.588V33.3239C154.588 31.8693 154.202 30.7784 153.429 30.0511C152.656 29.3239 151.691 28.9602 150.531 28.9602C149.213 28.9602 148.185 29.3807 147.446 30.2216C146.708 31.0511 146.338 32.1477 146.338 33.5114V49.5H139.298V33.1705C139.298 31.8864 138.929 30.8636 138.191 30.1023C137.463 29.3409 136.503 28.9602 135.31 28.9602C134.503 28.9602 133.776 29.1648 133.128 29.5739C132.492 29.9716 131.986 30.5341 131.611 31.2614C131.236 31.9773 131.048 32.8182 131.048 33.7841V49.5H123.787ZM182.14 50.0114C179.447 50.0114 177.129 49.4659 175.186 48.375C173.254 47.2727 171.765 45.7159 170.72 43.7045C169.674 41.6818 169.152 39.2898 169.152 36.5284C169.152 33.8352 169.674 31.4716 170.72 29.4375C171.765 27.4034 173.237 25.8182 175.134 24.6818C177.044 23.5455 179.282 22.9773 181.85 22.9773C183.578 22.9773 185.186 23.2557 186.674 23.8125C188.174 24.358 189.481 25.1818 190.595 26.2841C191.72 27.3864 192.595 28.7727 193.22 30.4432C193.845 32.1023 194.157 34.0455 194.157 36.2727V38.267H172.049V33.767H187.322C187.322 32.7216 187.095 31.7955 186.64 30.9886C186.186 30.1818 185.555 29.5511 184.748 29.0966C183.953 28.6307 183.027 28.3977 181.97 28.3977C180.867 28.3977 179.89 28.6534 179.038 29.1648C178.197 29.6648 177.538 30.3409 177.061 31.1932C176.583 32.0341 176.339 32.9716 176.328 34.0057V38.2841C176.328 39.5795 176.566 40.6989 177.044 41.642C177.532 42.5852 178.22 43.3125 179.106 43.8239C179.992 44.3352 181.044 44.5909 182.259 44.5909C183.066 44.5909 183.805 44.4773 184.475 44.25C185.146 44.0227 185.72 43.6818 186.197 43.2273C186.674 42.7727 187.038 42.2159 187.288 41.5568L194.004 42C193.663 43.6136 192.964 45.0227 191.907 46.2273C190.862 47.4205 189.509 48.3523 187.85 49.0227C186.203 49.6818 184.299 50.0114 182.14 50.0114ZM201.536 49.5V23.3182H208.456V27.9375H208.763C209.309 26.4034 210.218 25.1932 211.49 24.3068C212.763 23.4205 214.286 22.9773 216.059 22.9773C217.854 22.9773 219.382 23.4261 220.644 24.3239C221.905 25.2102 222.746 26.4148 223.167 27.9375H223.439C223.973 26.4375 224.939 25.2386 226.337 24.3409C227.746 23.4318 229.411 22.9773 231.331 22.9773C233.774 22.9773 235.757 23.7557 237.28 25.3125C238.814 26.858 239.581 29.0511 239.581 31.892V49.5H232.337V33.3239C232.337 31.8693 231.951 30.7784 231.178 30.0511C230.405 29.3239 229.439 28.9602 228.28 28.9602C226.962 28.9602 225.934 29.3807 225.195 30.2216C224.456 31.0511 224.087 32.1477 224.087 33.5114V49.5H217.047V33.1705C217.047 31.8864 216.678 30.8636 215.939 30.1023C215.212 29.3409 214.252 28.9602 213.059 28.9602C212.252 28.9602 211.524 29.1648 210.877 29.5739C210.24 29.9716 209.735 30.5341 209.36 31.2614C208.985 31.9773 208.797 32.8182 208.797 33.7841V49.5H201.536ZM248.093 49.5V14.5909H255.355V27.7159H255.576C255.895 27.0114 256.355 26.2955 256.957 25.5682C257.571 24.8295 258.366 24.2159 259.343 23.7273C260.332 23.2273 261.559 22.9773 263.025 22.9773C264.934 22.9773 266.696 23.4773 268.309 24.4773C269.923 25.4659 271.213 26.9602 272.179 28.9602C273.145 30.9489 273.628 33.4432 273.628 36.4432C273.628 39.3636 273.156 41.8295 272.213 43.8409C271.281 45.8409 270.008 47.358 268.395 48.392C266.792 49.4148 264.997 49.9261 263.008 49.9261C261.599 49.9261 260.4 49.6932 259.412 49.2273C258.434 48.7614 257.633 48.1761 257.008 47.4716C256.383 46.7557 255.906 46.0341 255.576 45.3068H255.253V49.5H248.093ZM255.201 36.4091C255.201 37.9659 255.417 39.3239 255.849 40.483C256.281 41.642 256.906 42.5455 257.724 43.1932C258.542 43.8295 259.537 44.1477 260.707 44.1477C261.889 44.1477 262.889 43.8239 263.707 43.1761C264.525 42.517 265.145 41.608 265.565 40.4489C265.997 39.2784 266.213 37.9318 266.213 36.4091C266.213 34.8977 266.003 33.5682 265.582 32.4205C265.162 31.2727 264.542 30.375 263.724 29.7273C262.906 29.0795 261.9 28.7557 260.707 28.7557C259.525 28.7557 258.525 29.0682 257.707 29.6932C256.9 30.3182 256.281 31.2045 255.849 32.3523C255.417 33.5 255.201 34.8523 255.201 36.4091ZM293.045 50.0114C290.351 50.0114 288.033 49.4659 286.09 48.375C284.158 47.2727 282.67 45.7159 281.624 43.7045C280.579 41.6818 280.056 39.2898 280.056 36.5284C280.056 33.8352 280.579 31.4716 281.624 29.4375C282.67 27.4034 284.141 25.8182 286.039 24.6818C287.948 23.5455 290.187 22.9773 292.755 22.9773C294.482 22.9773 296.09 23.2557 297.579 23.8125C299.079 24.358 300.385 25.1818 301.499 26.2841C302.624 27.3864 303.499 28.7727 304.124 30.4432C304.749 32.1023 305.062 34.0455 305.062 36.2727V38.267H282.954V33.767H298.226C298.226 32.7216 297.999 31.7955 297.545 30.9886C297.09 30.1818 296.459 29.5511 295.652 29.0966C294.857 28.6307 293.931 28.3977 292.874 28.3977C291.772 28.3977 290.795 28.6534 289.942 29.1648C289.101 29.6648 288.442 30.3409 287.965 31.1932C287.488 32.0341 287.243 32.9716 287.232 34.0057V38.2841C287.232 39.5795 287.471 40.6989 287.948 41.642C288.437 42.5852 289.124 43.3125 290.01 43.8239C290.897 44.3352 291.948 44.5909 293.164 44.5909C293.971 44.5909 294.709 44.4773 295.38 44.25C296.05 44.0227 296.624 43.6818 297.101 43.2273C297.579 42.7727 297.942 42.2159 298.192 41.5568L304.908 42C304.567 43.6136 303.868 45.0227 302.812 46.2273C301.766 47.4205 300.414 48.3523 298.755 49.0227C297.107 49.6818 295.204 50.0114 293.045 50.0114ZM312.44 49.5V23.3182H319.48V27.8864H319.753C320.23 26.2614 321.031 25.0341 322.156 24.2045C323.281 23.3636 324.577 22.9432 326.042 22.9432C326.406 22.9432 326.798 22.9659 327.219 23.0114C327.639 23.0568 328.008 23.1193 328.327 23.1989V29.642C327.986 29.5398 327.514 29.4489 326.912 29.3693C326.31 29.2898 325.758 29.25 325.258 29.25C324.19 29.25 323.236 29.483 322.395 29.9489C321.565 30.4034 320.906 31.0398 320.417 31.858C319.94 32.6761 319.702 33.6193 319.702 34.6875V49.5H312.44Z" fill="#5C5D56"/>
</svg>
